# Blender v2.80 (sub 75) OBJ File: 'Power Up Crate.blend'
# www.blender.org
mtllib Power Up Crate.mtl
o Cube
v 1.098800 0.844679 -0.942921
v 1.098800 -0.850048 -0.942921
v 1.098800 0.844679 0.938938
v 1.098800 -0.850048 0.938938
v -1.127798 0.844679 -0.942921
v -1.127798 -0.850048 -0.942921
v -1.127798 0.844679 0.938938
v -1.127798 -0.850048 0.938938
v -1.229748 0.628319 1.046183
v -0.857126 0.916844 0.729183
v -1.229748 0.628319 -1.046183
v -0.857126 0.916844 -0.729183
v 1.229748 0.628319 1.046183
v 0.857126 0.916844 0.729183
v 1.229748 0.628319 -1.046183
v 0.857126 0.916844 -0.729183
v -1.229748 0.916844 1.046183
v -1.229748 0.916844 -1.046183
v 1.229748 0.916844 -1.046183
v 1.229748 0.916844 1.046183
v -0.857126 0.165506 0.729183
v -0.857126 0.165506 -0.729183
v 0.857126 0.165506 -0.729183
v 0.857126 0.165506 0.729183
v 0.863446 0.918875 1.046183
v 1.230055 0.639408 0.729183
v 0.863446 0.918875 -1.046183
v 1.230055 0.639408 -0.729183
v 0.864486 -0.926803 1.046183
v 1.230780 -0.647017 0.729183
v 0.864486 -0.926803 -1.046183
v 1.230780 -0.647017 -0.729183
v 1.229898 0.919034 1.046183
v 1.229898 0.919034 -1.046183
v 1.230937 -0.926643 -1.046183
v 1.230937 -0.926643 1.046183
v 0.228845 0.639091 0.729183
v 0.228845 0.639091 -0.729183
v 0.229569 -0.647335 -0.729183
v 0.229569 -0.647335 0.729183
v 1.232145 -0.646032 1.046183
v 0.859736 -0.926338 0.729183
v 1.232145 -0.646032 -1.046183
v 0.859736 -0.926338 -0.729183
v -1.227350 -0.646812 1.046183
v -0.854517 -0.926882 0.729183
v -1.227350 -0.646812 -1.046183
v -0.854517 -0.926882 -0.729183
v 1.232357 -0.926220 1.046183
v 1.232357 -0.926220 -1.046183
v -1.227138 -0.927000 -1.046183
v -1.227138 -0.927000 1.046183
v 0.859313 -0.175000 0.729183
v 0.859313 -0.175000 -0.729183
v -0.854940 -0.175544 -0.729183
v -0.854940 -0.175544 0.729183
v -0.862701 -0.927809 1.046183
v -1.229332 -0.648343 0.729183
v -0.862701 -0.927809 -1.046183
v -1.229332 -0.648343 -0.729183
v -0.863740 0.917869 1.046183
v -1.230056 0.638083 0.729183
v -0.863740 0.917869 -1.046183
v -1.230056 0.638083 -0.729183
v -1.229174 -0.927969 1.046183
v -1.229174 -0.927969 -1.046183
v -1.230214 0.917709 -1.046183
v -1.230214 0.917709 1.046183
v -0.228121 -0.648025 0.729183
v -0.228121 -0.648025 -0.729183
v -0.228845 0.638401 -0.729183
v -0.228845 0.638401 0.729183
vt 0.625000 0.500000
vt 0.875000 0.500000
vt 0.875000 0.750000
vt 0.625000 0.750000
vt 0.375000 0.750000
vt 0.625000 1.000000
vt 0.375000 1.000000
vt 0.375000 0.000000
vt 0.625000 0.000000
vt 0.625000 0.250000
vt 0.375000 0.250000
vt 0.125000 0.500000
vt 0.375000 0.500000
vt 0.125000 0.750000
vt 0.375000 0.000000
vt 0.625000 0.000000
vt 0.625000 0.250000
vt 0.375000 0.250000
vt 0.625000 0.500000
vt 0.375000 0.500000
vt 0.625000 0.750000
vt 0.375000 0.750000
vt 0.625000 1.000000
vt 0.375000 1.000000
vt 0.125000 0.500000
vt 0.125000 0.750000
vt 0.837124 0.712124
vt 0.662876 0.712124
vt 0.662876 0.712124
vt 0.837124 0.712124
vt 0.837124 0.537876
vt 0.875000 0.500000
vt 0.875000 0.750000
vt 0.662876 0.537876
vt 0.662876 0.537876
vt 0.837124 0.537876
vt 0.375000 0.000000
vt 0.625000 0.000000
vt 0.625000 0.250000
vt 0.375000 0.250000
vt 0.625000 0.500000
vt 0.375000 0.500000
vt 0.625000 0.750000
vt 0.375000 0.750000
vt 0.625000 1.000000
vt 0.375000 1.000000
vt 0.125000 0.500000
vt 0.125000 0.750000
vt 0.837124 0.712124
vt 0.662876 0.712124
vt 0.662876 0.712124
vt 0.837124 0.712124
vt 0.837124 0.537876
vt 0.875000 0.500000
vt 0.875000 0.750000
vt 0.662876 0.537876
vt 0.662876 0.537876
vt 0.837124 0.537876
vt 0.375000 0.000000
vt 0.625000 0.000000
vt 0.625000 0.250000
vt 0.375000 0.250000
vt 0.625000 0.500000
vt 0.375000 0.500000
vt 0.625000 0.750000
vt 0.375000 0.750000
vt 0.625000 1.000000
vt 0.375000 1.000000
vt 0.125000 0.500000
vt 0.125000 0.750000
vt 0.837124 0.712124
vt 0.662876 0.712124
vt 0.662876 0.712124
vt 0.837124 0.712124
vt 0.837124 0.537876
vt 0.875000 0.500000
vt 0.875000 0.750000
vt 0.662876 0.537876
vt 0.662876 0.537876
vt 0.837124 0.537876
vt 0.375000 0.000000
vt 0.625000 0.000000
vt 0.625000 0.250000
vt 0.375000 0.250000
vt 0.625000 0.500000
vt 0.375000 0.500000
vt 0.625000 0.750000
vt 0.375000 0.750000
vt 0.625000 1.000000
vt 0.375000 1.000000
vt 0.125000 0.500000
vt 0.125000 0.750000
vt 0.837124 0.712124
vt 0.662876 0.712124
vt 0.662876 0.712124
vt 0.837124 0.712124
vt 0.837124 0.537876
vt 0.875000 0.500000
vt 0.875000 0.750000
vt 0.662876 0.537876
vt 0.662876 0.537876
vt 0.837124 0.537876
vn 0.0000 1.0000 0.0000
vn 0.0000 0.0000 1.0000
vn -1.0000 0.0000 0.0000
vn 0.0000 -1.0000 0.0000
vn 1.0000 0.0000 0.0000
vn 0.0000 0.0000 -1.0000
vn -0.0004 1.0000 0.0000
vn 0.0004 -1.0000 0.0000
vn -1.0000 -0.0006 0.0000
vn 1.0000 0.0006 0.0000
vn -0.0003 1.0000 0.0000
vn 0.0003 -1.0000 0.0000
vn 1.0000 0.0008 0.0000
vn -1.0000 -0.0008 0.0000
usemtl Material
s off
f 1/1/1 5/2/1 7/3/1 3/4/1
f 4/5/2 3/4/2 7/6/2 8/7/2
f 8/8/3 7/9/3 5/10/3 6/11/3
f 6/12/4 2/13/4 4/5/4 8/14/4
f 2/13/5 1/1/5 3/4/5 4/5/5
f 6/11/6 5/10/6 1/1/6 2/13/6
f 9/15/3 17/16/3 18/17/3 11/18/3
f 11/18/6 18/17/6 19/19/6 15/20/6
f 15/20/5 19/19/5 20/21/5 13/22/5
f 13/22/2 20/21/2 17/23/2 9/24/2
f 11/25/4 15/20/4 13/22/4 9/26/4
f 10/27/6 14/28/6 24/29/6 21/30/6
f 10/27/1 12/31/1 18/32/1 17/33/1
f 12/31/1 16/34/1 19/19/1 18/32/1
f 16/34/1 14/28/1 20/21/1 19/19/1
f 14/28/1 10/27/1 17/33/1 20/21/1
f 23/35/1 22/36/1 21/30/1 24/29/1
f 16/34/2 12/31/2 22/36/2 23/35/2
f 14/28/3 16/34/3 23/35/3 24/29/3
f 12/31/5 10/27/5 21/30/5 22/36/5
f 25/37/7 33/38/7 34/39/7 27/40/7
f 27/40/6 34/39/6 35/41/6 31/42/6
f 31/42/8 35/41/8 36/43/8 29/44/8
f 29/44/2 36/43/2 33/45/2 25/46/2
f 27/47/9 31/42/9 29/44/9 25/48/9
f 26/49/6 30/50/6 40/51/6 37/52/6
f 26/49/10 28/53/10 34/54/10 33/55/10
f 28/53/10 32/56/10 35/41/10 34/54/10
f 32/56/10 30/50/10 36/43/10 35/41/10
f 30/50/10 26/49/10 33/55/10 36/43/10
f 39/57/10 38/58/10 37/52/10 40/51/10
f 32/56/2 28/53/2 38/58/2 39/57/2
f 30/50/11 32/56/11 39/57/11 40/51/11
f 28/53/12 26/49/12 37/52/12 38/58/12
f 41/59/13 49/60/13 50/61/13 43/62/13
f 43/62/6 50/61/6 51/63/6 47/64/6
f 47/64/14 51/63/14 52/65/14 45/66/14
f 45/66/2 52/65/2 49/67/2 41/68/2
f 43/69/11 47/64/11 45/66/11 41/70/11
f 42/71/6 46/72/6 56/73/6 53/74/6
f 42/71/12 44/75/12 50/76/12 49/77/12
f 44/75/12 48/78/12 51/63/12 50/76/12
f 48/78/12 46/72/12 52/65/12 51/63/12
f 46/72/12 42/71/12 49/77/12 52/65/12
f 55/79/12 54/80/12 53/74/12 56/73/12
f 48/78/2 44/75/2 54/80/2 55/79/2
f 46/72/10 48/78/10 55/79/10 56/73/10
f 44/75/9 42/71/9 53/74/9 54/80/9
f 57/81/8 65/82/8 66/83/8 59/84/8
f 59/84/6 66/83/6 67/85/6 63/86/6
f 63/86/7 67/85/7 68/87/7 61/88/7
f 61/88/2 68/87/2 65/89/2 57/90/2
f 59/91/10 63/86/10 61/88/10 57/92/10
f 58/93/6 62/94/6 72/95/6 69/96/6
f 58/93/9 60/97/9 66/98/9 65/99/9
f 60/97/9 64/100/9 67/85/9 66/98/9
f 64/100/9 62/94/9 68/87/9 67/85/9
f 62/94/9 58/93/9 65/99/9 68/87/9
f 71/101/9 70/102/9 69/96/9 72/95/9
f 64/100/2 60/97/2 70/102/2 71/101/2
f 62/94/12 64/100/12 71/101/12 72/95/12
f 60/97/11 58/93/11 69/96/11 70/102/11
o Cube.001
v -0.861206 -0.882101 -0.475864
v -0.861206 0.882101 -0.475864
v -0.861206 -0.882101 -0.782518
v -0.861206 0.882101 -0.782518
v 0.861206 -0.882101 -0.475864
v 0.861206 0.882101 -0.475864
v 0.861206 -0.882101 -0.782518
v 0.861206 0.882101 -0.782518
v -0.861206 -0.882101 -0.150864
v -0.861206 0.882101 -0.150864
v -0.861206 -0.882101 -0.457518
v -0.861206 0.882101 -0.457518
v 0.861206 -0.882101 -0.150864
v 0.861206 0.882101 -0.150864
v 0.861206 -0.882101 -0.457518
v 0.861206 0.882101 -0.457518
v -0.861206 -0.882101 -0.150864
v -0.861206 0.882101 -0.150864
v -0.861206 -0.882101 -0.457518
v -0.861206 0.882101 -0.457518
v 0.861206 -0.882101 -0.150864
v 0.861206 0.882101 -0.150864
v 0.861206 -0.882101 -0.457518
v 0.861206 0.882101 -0.457518
v -0.861206 -0.882101 0.174136
v -0.861206 0.882101 0.174136
v -0.861206 -0.882101 -0.132518
v -0.861206 0.882101 -0.132518
v 0.861206 -0.882101 0.174136
v 0.861206 0.882101 0.174136
v 0.861206 -0.882101 -0.132518
v 0.861206 0.882101 -0.132518
v -0.861206 -0.882101 0.499136
v -0.861206 0.882101 0.499136
v -0.861206 -0.882101 0.192482
v -0.861206 0.882101 0.192482
v 0.861206 -0.882101 0.499136
v 0.861206 0.882101 0.499136
v 0.861206 -0.882101 0.192482
v 0.861206 0.882101 0.192482
v -0.861206 -0.882101 0.824136
v -0.861206 0.882101 0.824136
v -0.861206 -0.882101 0.517482
v -0.861206 0.882101 0.517482
v 0.861206 -0.882101 0.824136
v 0.861206 0.882101 0.824136
v 0.861206 -0.882101 0.517482
v 0.861206 0.882101 0.517482
v -1.164918 -0.447171 0.978477
v -1.164918 -0.447171 -0.997413
v -1.164918 -0.717670 0.978477
v -1.164918 -0.717671 -0.997413
v 1.164918 -0.447171 0.978477
v 1.164918 -0.447171 -0.997413
v 1.164918 -0.717670 0.978477
v 1.164918 -0.717671 -0.997413
v -1.164918 -0.160488 0.978477
v -1.164918 -0.160488 -0.997413
v -1.164918 -0.430988 0.978477
v -1.164918 -0.430988 -0.997413
v 1.164918 -0.160488 0.978477
v 1.164918 -0.160488 -0.997413
v 1.164918 -0.430988 0.978477
v 1.164918 -0.430988 -0.997413
v -1.164918 -0.160488 0.978477
v -1.164918 -0.160488 -0.997413
v -1.164918 -0.430988 0.978477
v -1.164918 -0.430988 -0.997413
v 1.164918 -0.160488 0.978477
v 1.164918 -0.160488 -0.997413
v 1.164918 -0.430988 0.978477
v 1.164918 -0.430988 -0.997413
v -1.164918 0.126195 0.978477
v -1.164918 0.126195 -0.997413
v -1.164918 -0.144305 0.978477
v -1.164918 -0.144305 -0.997413
v 1.164918 0.126195 0.978477
v 1.164918 0.126195 -0.997413
v 1.164918 -0.144305 0.978477
v 1.164918 -0.144305 -0.997413
v -1.164918 0.412878 0.978477
v -1.164918 0.412878 -0.997413
v -1.164918 0.142378 0.978477
v -1.164918 0.142378 -0.997413
v 1.164918 0.412878 0.978477
v 1.164918 0.412878 -0.997413
v 1.164918 0.142378 0.978477
v 1.164918 0.142378 -0.997413
v -1.164918 0.699561 0.978477
v -1.164918 0.699561 -0.997413
v -1.164918 0.429061 0.978477
v -1.164918 0.429061 -0.997413
v 1.164918 0.699561 0.978477
v 1.164918 0.699561 -0.997413
v 1.164918 0.429061 0.978477
v 1.164918 0.429061 -0.997413
vt 0.375000 0.000000
vt 0.625000 0.000000
vt 0.625000 0.250000
vt 0.375000 0.250000
vt 0.625000 0.500000
vt 0.375000 0.500000
vt 0.625000 0.750000
vt 0.375000 0.750000
vt 0.625000 1.000000
vt 0.375000 1.000000
vt 0.125000 0.500000
vt 0.125000 0.750000
vt 0.875000 0.500000
vt 0.875000 0.750000
vt 0.375000 0.000000
vt 0.625000 0.000000
vt 0.625000 0.250000
vt 0.375000 0.250000
vt 0.625000 0.500000
vt 0.375000 0.500000
vt 0.625000 0.750000
vt 0.375000 0.750000
vt 0.625000 1.000000
vt 0.375000 1.000000
vt 0.125000 0.500000
vt 0.125000 0.750000
vt 0.875000 0.500000
vt 0.875000 0.750000
vt 0.375000 0.000000
vt 0.625000 0.000000
vt 0.625000 0.250000
vt 0.375000 0.250000
vt 0.625000 0.500000
vt 0.375000 0.500000
vt 0.625000 0.750000
vt 0.375000 0.750000
vt 0.625000 1.000000
vt 0.375000 1.000000
vt 0.125000 0.500000
vt 0.125000 0.750000
vt 0.875000 0.500000
vt 0.875000 0.750000
vt 0.375000 0.000000
vt 0.625000 0.000000
vt 0.625000 0.250000
vt 0.375000 0.250000
vt 0.625000 0.500000
vt 0.375000 0.500000
vt 0.625000 0.750000
vt 0.375000 0.750000
vt 0.625000 1.000000
vt 0.375000 1.000000
vt 0.125000 0.500000
vt 0.125000 0.750000
vt 0.875000 0.500000
vt 0.875000 0.750000
vt 0.375000 0.000000
vt 0.625000 0.000000
vt 0.625000 0.250000
vt 0.375000 0.250000
vt 0.625000 0.500000
vt 0.375000 0.500000
vt 0.625000 0.750000
vt 0.375000 0.750000
vt 0.625000 1.000000
vt 0.375000 1.000000
vt 0.125000 0.500000
vt 0.125000 0.750000
vt 0.875000 0.500000
vt 0.875000 0.750000
vt 0.375000 0.000000
vt 0.625000 0.000000
vt 0.625000 0.250000
vt 0.375000 0.250000
vt 0.625000 0.500000
vt 0.375000 0.500000
vt 0.625000 0.750000
vt 0.375000 0.750000
vt 0.625000 1.000000
vt 0.375000 1.000000
vt 0.125000 0.500000
vt 0.125000 0.750000
vt 0.875000 0.500000
vt 0.875000 0.750000
vt 0.375000 0.000000
vt 0.625000 0.000000
vt 0.625000 0.250000
vt 0.375000 0.250000
vt 0.625000 0.500000
vt 0.375000 0.500000
vt 0.625000 0.750000
vt 0.375000 0.750000
vt 0.625000 1.000000
vt 0.375000 1.000000
vt 0.125000 0.500000
vt 0.125000 0.750000
vt 0.875000 0.500000
vt 0.875000 0.750000
vt 0.375000 0.000000
vt 0.625000 0.000000
vt 0.625000 0.250000
vt 0.375000 0.250000
vt 0.625000 0.500000
vt 0.375000 0.500000
vt 0.625000 0.750000
vt 0.375000 0.750000
vt 0.625000 1.000000
vt 0.375000 1.000000
vt 0.125000 0.500000
vt 0.125000 0.750000
vt 0.875000 0.500000
vt 0.875000 0.750000
vt 0.375000 0.000000
vt 0.625000 0.000000
vt 0.625000 0.250000
vt 0.375000 0.250000
vt 0.625000 0.500000
vt 0.375000 0.500000
vt 0.625000 0.750000
vt 0.375000 0.750000
vt 0.625000 1.000000
vt 0.375000 1.000000
vt 0.125000 0.500000
vt 0.125000 0.750000
vt 0.875000 0.500000
vt 0.875000 0.750000
vt 0.375000 0.000000
vt 0.625000 0.000000
vt 0.625000 0.250000
vt 0.375000 0.250000
vt 0.625000 0.500000
vt 0.375000 0.500000
vt 0.625000 0.750000
vt 0.375000 0.750000
vt 0.625000 1.000000
vt 0.375000 1.000000
vt 0.125000 0.500000
vt 0.125000 0.750000
vt 0.875000 0.500000
vt 0.875000 0.750000
vt 0.375000 0.000000
vt 0.625000 0.000000
vt 0.625000 0.250000
vt 0.375000 0.250000
vt 0.625000 0.500000
vt 0.375000 0.500000
vt 0.625000 0.750000
vt 0.375000 0.750000
vt 0.625000 1.000000
vt 0.375000 1.000000
vt 0.125000 0.500000
vt 0.125000 0.750000
vt 0.875000 0.500000
vt 0.875000 0.750000
vt 0.375000 0.000000
vt 0.625000 0.000000
vt 0.625000 0.250000
vt 0.375000 0.250000
vt 0.625000 0.500000
vt 0.375000 0.500000
vt 0.625000 0.750000
vt 0.375000 0.750000
vt 0.625000 1.000000
vt 0.375000 1.000000
vt 0.125000 0.500000
vt 0.125000 0.750000
vt 0.875000 0.500000
vt 0.875000 0.750000
vn -1.0000 0.0000 0.0000
vn 0.0000 0.0000 -1.0000
vn 1.0000 0.0000 0.0000
vn 0.0000 0.0000 1.0000
vn 0.0000 -1.0000 0.0000
vn 0.0000 1.0000 0.0000
usemtl Material.001
s off
f 73/103/15 74/104/15 76/105/15 75/106/15
f 75/106/16 76/105/16 80/107/16 79/108/16
f 79/108/17 80/107/17 78/109/17 77/110/17
f 77/110/18 78/109/18 74/111/18 73/112/18
f 75/113/19 79/108/19 77/110/19 73/114/19
f 80/107/20 76/115/20 74/116/20 78/109/20
f 81/117/15 82/118/15 84/119/15 83/120/15
f 83/120/16 84/119/16 88/121/16 87/122/16
f 87/122/17 88/121/17 86/123/17 85/124/17
f 85/124/18 86/123/18 82/125/18 81/126/18
f 83/127/19 87/122/19 85/124/19 81/128/19
f 88/121/20 84/129/20 82/130/20 86/123/20
f 89/131/15 90/132/15 92/133/15 91/134/15
f 91/134/16 92/133/16 96/135/16 95/136/16
f 95/136/17 96/135/17 94/137/17 93/138/17
f 93/138/18 94/137/18 90/139/18 89/140/18
f 91/141/19 95/136/19 93/138/19 89/142/19
f 96/135/20 92/143/20 90/144/20 94/137/20
f 97/145/15 98/146/15 100/147/15 99/148/15
f 99/148/16 100/147/16 104/149/16 103/150/16
f 103/150/17 104/149/17 102/151/17 101/152/17
f 101/152/18 102/151/18 98/153/18 97/154/18
f 99/155/19 103/150/19 101/152/19 97/156/19
f 104/149/20 100/157/20 98/158/20 102/151/20
f 105/159/15 106/160/15 108/161/15 107/162/15
f 107/162/16 108/161/16 112/163/16 111/164/16
f 111/164/17 112/163/17 110/165/17 109/166/17
f 109/166/18 110/165/18 106/167/18 105/168/18
f 107/169/19 111/164/19 109/166/19 105/170/19
f 112/163/20 108/171/20 106/172/20 110/165/20
f 113/173/15 114/174/15 116/175/15 115/176/15
f 115/176/16 116/175/16 120/177/16 119/178/16
f 119/178/17 120/177/17 118/179/17 117/180/17
f 117/180/18 118/179/18 114/181/18 113/182/18
f 115/183/19 119/178/19 117/180/19 113/184/19
f 120/177/20 116/185/20 114/186/20 118/179/20
f 121/187/15 122/188/15 124/189/15 123/190/15
f 123/190/19 124/189/19 128/191/19 127/192/19
f 127/192/17 128/191/17 126/193/17 125/194/17
f 125/194/20 126/193/20 122/195/20 121/196/20
f 123/197/18 127/192/18 125/194/18 121/198/18
f 128/191/16 124/199/16 122/200/16 126/193/16
f 129/201/15 130/202/15 132/203/15 131/204/15
f 131/204/19 132/203/19 136/205/19 135/206/19
f 135/206/17 136/205/17 134/207/17 133/208/17
f 133/208/20 134/207/20 130/209/20 129/210/20
f 131/211/18 135/206/18 133/208/18 129/212/18
f 136/205/16 132/213/16 130/214/16 134/207/16
f 137/215/15 138/216/15 140/217/15 139/218/15
f 139/218/19 140/217/19 144/219/19 143/220/19
f 143/220/17 144/219/17 142/221/17 141/222/17
f 141/222/20 142/221/20 138/223/20 137/224/20
f 139/225/18 143/220/18 141/222/18 137/226/18
f 144/219/16 140/227/16 138/228/16 142/221/16
f 145/229/15 146/230/15 148/231/15 147/232/15
f 147/232/19 148/231/19 152/233/19 151/234/19
f 151/234/17 152/233/17 150/235/17 149/236/17
f 149/236/20 150/235/20 146/237/20 145/238/20
f 147/239/18 151/234/18 149/236/18 145/240/18
f 152/233/16 148/241/16 146/242/16 150/235/16
f 153/243/15 154/244/15 156/245/15 155/246/15
f 155/246/19 156/245/19 160/247/19 159/248/19
f 159/248/17 160/247/17 158/249/17 157/250/17
f 157/250/20 158/249/20 154/251/20 153/252/20
f 155/253/18 159/248/18 157/250/18 153/254/18
f 160/247/16 156/255/16 154/256/16 158/249/16
f 161/257/15 162/258/15 164/259/15 163/260/15
f 163/260/19 164/259/19 168/261/19 167/262/19
f 167/262/17 168/261/17 166/263/17 165/264/17
f 165/264/20 166/263/20 162/265/20 161/266/20
f 163/267/18 167/262/18 165/264/18 161/268/18
f 168/261/16 164/269/16 162/270/16 166/263/16
